# xmcd
#
# Track frame offsets:
#	183
#	17658
#	46558
#
# Disc length: 1100 seconds
#
# Revision: 6
# Processed by: cddbd v1.5.2PL0 Copyright (c) Steve Scherf et al.
# Submitted via: EZCDAudioConverter 1.3.4.1
#
DISCID=14044a03
DTITLE=Yello - Jungle Bill
DYEAR=1992
DGENRE=
TTITLE0=Jungle Bill [Single]
TTITLE1=Jungle Bill [Big Pig Shuffle]
TTITLE2=Jungle Bill [Space Shuffle]
EXTD=
EXTT0=
EXTT1=
EXTT2=
PLAYORDER=
